<svg xmlns="http://www.w3.org/2000/svg" width="400" height="400" viewBox="0 0 400 400" fill="none" role="img" aria-label="Illustrated creator avatar">
  <rect width="400" height="400" fill="#dcf4e7"/>
  <rect x="51" y="43" width="312" height="292" rx="65" fill="#d4622f" opacity="0.28"/>
  <path d="M75 400 Q 200 278 325 400 Z" fill="#1d8656"/>
  <rect x="176" y="223" width="48" height="66" rx="22" fill="#d9a878"/>
  <path d="M104 181 q 0 -126 96 -126 q 96 0 96 126 l 0 112 q -14 16 -30 4 l 0 -79 l -152 0 l 0 79 q -16 12 -30 -4 Z" fill="#111111" opacity="0.9"/>
  <circle cx="200" cy="169" r="80" fill="#d9a878"/>
  <path d="M120 163 a 80 80 0 0 1 160 0 q -40 -27.200000000000003 -80 -24 q -40 -0.04 -80 24 Z" fill="#111111" opacity="0.92"/>
  <circle cx="175" cy="174" r="5.5" fill="#111111"/>
  <circle cx="225" cy="174" r="5.5" fill="#111111"/>
  <path d="M181 201 q 19 22 38 0" stroke="#111111" stroke-width="5" stroke-linecap="round"/>
  <defs>  <filter id="g" x="0" y="0" width="100%" height="100%">
    <feTurbulence type="fractalNoise" baseFrequency="0.85" numOctaves="3" stitchTiles="stitch"/>
    <feColorMatrix type="saturate" values="0"/>
    <feComponentTransfer><feFuncA type="linear" slope="0.05"/></feComponentTransfer>
  </filter></defs>
  <rect width="400" height="400" filter="url(#g)" opacity="0.5"/>
</svg>
