<svg xmlns="http://www.w3.org/2000/svg" width="800" height="1000" viewBox="0 0 800 1000" fill="none" role="img" aria-label="lifestyle portfolio piece">
  <rect width="800" height="1000" fill="#f6ead0"/>
  <path d="M526 1000 L 765 1000 L 1098 0 L 882 0 Z" fill="#d4622f" opacity="0.34"/>
  <path d="M390 1000 L 607 1000 L 858 0 L 745 0 Z" fill="#936712" opacity="0.35"/>
  <path d="M790 1000 L 977 1000 L 1352 0 L 1141 0 Z" fill="#d4622f" opacity="0.27"/>
  <path d="M768 1000 L 934 1000 L 1264 0 L 1014 0 Z" fill="#936712" opacity="0.44"/>
  <path d="M341 1000 L 543 1000 L 855 0 L 699 0 Z" fill="#d4622f" opacity="0.26"/>
  <path d="M-147 1000 L 139 1000 L 316 0 L 162 0 Z" fill="#936712" opacity="0.45"/>
  <circle cx="343" cy="788" r="133" fill="#ffffff" opacity="0.72"/>
  <defs>  <filter id="gp" x="0" y="0" width="100%" height="100%">
    <feTurbulence type="fractalNoise" baseFrequency="0.85" numOctaves="3" stitchTiles="stitch"/>
    <feColorMatrix type="saturate" values="0"/>
    <feComponentTransfer><feFuncA type="linear" slope="0.055"/></feComponentTransfer>
  </filter></defs><rect width="800" height="1000" filter="url(#gp)" opacity="0.55"/>
</svg>
