<svg xmlns="http://www.w3.org/2000/svg" width="800" height="1000" viewBox="0 0 800 1000" fill="none" role="img" aria-label="ugc portfolio piece">
  <rect width="800" height="1000" fill="#fde8f0"/>
  <circle cx="351" cy="290" r="75" fill="#8a1140" opacity="0.7"/>
  <circle cx="497" cy="820" r="61" fill="#8a1140" opacity="0.68"/>
  <path d="M504 411 L 561 297 L 618 411 Z" fill="#ffffff" opacity="0.3"/>
  <rect x="166" y="58" width="92" height="92" rx="37" fill="#e1306c" opacity="0.75"/>
  <circle cx="636" cy="408" r="42.5" fill="#ffffff" opacity="0.48"/>
  <path d="M150 853 L 203 747 L 256 853 Z" fill="#ffffff" opacity="0.45"/>
  <circle cx="440" cy="74" r="93" fill="#ffffff" opacity="0.5"/>
  <rect x="495" y="467" width="88" height="88" rx="36" fill="#ffffff" opacity="0.71"/>
  <rect x="619" y="828" width="156" height="156" rx="30" fill="#111111" opacity="0.62"/>
  <circle cx="474" cy="429" r="62.5" fill="#ffffff" opacity="0.56"/>
  <path d="M57 804 L 151 616 L 245 804 Z" fill="#e1306c" opacity="0.7"/>
  <rect x="199" y="760" width="99" height="99" rx="17" fill="#ffffff" opacity="0.51"/>
  <defs>  <filter id="gp" x="0" y="0" width="100%" height="100%">
    <feTurbulence type="fractalNoise" baseFrequency="0.85" numOctaves="3" stitchTiles="stitch"/>
    <feColorMatrix type="saturate" values="0"/>
    <feComponentTransfer><feFuncA type="linear" slope="0.055"/></feComponentTransfer>
  </filter></defs><rect width="800" height="1000" filter="url(#gp)" opacity="0.55"/>
</svg>
